<svg width="35" height="31" viewBox="0 0 35 31" fill="none" xmlns="http://www.w3.org/2000/svg">
<path d="M32.5713 0C33.5665 9.57883e-05 34.3734 0.807064 34.3735 1.80228C34.3735 2.79759 33.5665 3.60446 32.5713 3.60455H1.80228C0.806907 3.60455 0 2.79765 0 1.80228C0.00011508 0.807005 0.806978 0 1.80228 0H32.5713Z" fill="black"/>
<path d="M32.5713 18.2628C33.5665 18.2629 34.3734 19.0699 34.3735 20.0651C34.3735 21.0604 33.5665 21.8673 32.5713 21.8674H1.80228C0.806907 21.8674 0 21.0605 0 20.0651C0.00011508 19.0698 0.806978 18.2628 1.80228 18.2628H32.5713Z" fill="black"/>
<path d="M20.5713 27.3942C21.5665 27.3943 22.3734 28.2012 22.3735 29.1964C22.3735 30.1918 21.5665 30.9986 20.5713 30.9987H1.80228C0.806907 30.9987 0 30.1918 0 29.1964C0.00011508 28.2012 0.806978 27.3942 1.80228 27.3942H20.5713Z" fill="black"/>
<path d="M24.5713 9.13141C25.5665 9.1315 26.3734 9.93847 26.3735 10.9337C26.3735 11.929 25.5665 12.7359 24.5713 12.736H1.80228C0.806907 12.736 0 11.9291 0 10.9337C0.00011508 9.93841 0.806978 9.13141 1.80228 9.13141H24.5713Z" fill="black"/>
</svg>
