<svg width="35" height="31" viewBox="0 0 35 31" fill="none" xmlns="http://www.w3.org/2000/svg">
<path d="M32.5713 0C33.5665 9.57883e-05 34.3734 0.807064 34.3735 1.80228C34.3735 2.79759 33.5665 3.60446 32.5713 3.60455H1.80228C0.806907 3.60455 0 2.79765 0 1.80228C0.00011508 0.807005 0.806978 0 1.80228 0H32.5713Z" fill="black"/>
<path d="M32.5713 18.2628C33.5665 18.2629 34.3734 19.0699 34.3735 20.0651C34.3735 21.0604 33.5665 21.8673 32.5713 21.8674H1.80228C0.806907 21.8674 0 21.0605 0 20.0651C0.00011508 19.0698 0.806978 18.2628 1.80228 18.2628H32.5713Z" fill="black"/>
<path d="M26.5713 27.3942C27.5665 27.3943 28.3734 28.2012 28.3735 29.1964C28.3735 30.1918 27.5665 30.9986 26.5713 30.9987H7.80228C6.80691 30.9987 6 30.1918 6 29.1964C6.00012 28.2012 6.80698 27.3942 7.80228 27.3942H26.5713Z" fill="black"/>
<path d="M28.5713 9.13141C29.5665 9.1315 30.3734 9.93847 30.3735 10.9337C30.3735 11.929 29.5665 12.7359 28.5713 12.736H5.80228C4.80691 12.736 4 11.9291 4 10.9337C4.00012 9.93841 4.80698 9.13141 5.80228 9.13141H28.5713Z" fill="black"/>
</svg>
