<svg width="35" height="31" viewBox="0 0 35 31" fill="none" xmlns="http://www.w3.org/2000/svg">
<path d="M32.5713 0C33.5665 9.57883e-05 34.3734 0.807064 34.3735 1.80228C34.3735 2.79759 33.5665 3.60446 32.5713 3.60455H1.80228C0.806907 3.60455 0 2.79765 0 1.80228C0.00011508 0.807005 0.806978 0 1.80228 0H32.5713Z" fill="black"/>
<path d="M32.5713 18.2628C33.5665 18.2629 34.3734 19.0699 34.3735 20.0651C34.3735 21.0604 33.5665 21.8673 32.5713 21.8674H1.80228C0.806907 21.8674 0 21.0605 0 20.0651C0.00011508 19.0698 0.806978 18.2628 1.80228 18.2628H32.5713Z" fill="black"/>
<path d="M32.5713 27.3942C33.5665 27.3943 34.3734 28.2012 34.3735 29.1964C34.3735 30.1918 33.5665 30.9986 32.5713 30.9987H13.8023C12.8069 30.9987 12 30.1918 12 29.1964C12.0001 28.2012 12.807 27.3942 13.8023 27.3942H32.5713Z" fill="black"/>
<path d="M32.5713 9.13141C33.5665 9.1315 34.3734 9.93847 34.3735 10.9337C34.3735 11.929 33.5665 12.7359 32.5713 12.736H9.80228C8.80691 12.736 8 11.9291 8 10.9337C8.00012 9.93841 8.80698 9.13141 9.80228 9.13141H32.5713Z" fill="black"/>
</svg>
