<svg width="25" height="33" viewBox="0 0 25 33" fill="none" xmlns="http://www.w3.org/2000/svg">
<path d="M2.90489 32.4942C1.10341 32.4942 0 31.3683 0 29.4767V3.01748C0 1.12593 1.10341 0 2.90489 0H13.4886C19.3884 0 23.1941 3.17511 23.1941 8.10666C23.1941 11.597 20.6044 14.637 17.2717 15.1775V15.3576C21.6853 15.7855 24.7704 18.9606 24.7704 23.2616C24.7704 28.9813 20.5594 32.4942 13.6237 32.4942H2.90489ZM5.80977 13.6913H11.1241C15.1775 13.6913 17.4518 11.9798 17.4518 8.96236C17.4518 6.12503 15.4927 4.52622 12.0249 4.52622H5.80977V13.6913ZM5.80977 27.968H12.2951C16.5736 27.968 18.848 26.189 18.848 22.8563C18.848 19.5461 16.5061 17.8121 12.0474 17.8121H5.80977V27.968Z" fill="black"/>
</svg>
