<svg width="56" height="49" viewBox="0 0 56 49" fill="none" xmlns="http://www.w3.org/2000/svg">
<path d="M13.8643 19.0957C16.0181 19.0957 17.7646 20.8422 17.7646 22.9961C17.7646 25.15 16.0181 26.8964 13.8643 26.8965C11.7103 26.8965 9.96387 25.15 9.96387 22.9961C9.96389 20.8422 11.7104 19.0957 13.8643 19.0957Z" fill="black"/>
<path d="M41.459 16.0029C43.6129 16.0029 45.3594 17.7494 45.3594 19.9033C45.3594 22.0572 43.6129 23.8037 41.459 23.8037C39.3052 23.8036 37.5596 22.0571 37.5596 19.9033C37.5596 17.7495 39.3052 16.0031 41.459 16.0029Z" fill="black"/>
<path d="M21.3711 10.6689C23.5248 10.6692 25.2705 12.4156 25.2705 14.5693C25.2705 16.7231 23.5248 18.4695 21.3711 18.4697C19.2172 18.4697 17.4707 16.7232 17.4707 14.5693C17.4707 12.4154 19.2172 10.6689 21.3711 10.6689Z" fill="black"/>
<path d="M32.208 10.1094C34.3618 10.1096 36.1074 11.856 36.1074 14.0098C36.1073 16.1635 34.3617 17.909 32.208 17.9092C30.0541 17.9092 28.3077 16.1636 28.3076 14.0098C28.3076 11.8559 30.0541 10.1094 32.208 10.1094Z" fill="black"/>
<path fill-rule="evenodd" clip-rule="evenodd" d="M26.9121 0C41.9064 7.44032e-05 55.4648 9.13944 55.4648 23.3213C55.4648 27.9182 54.4489 31.4914 52.2568 33.9873C50.0322 36.5202 47.0558 37.4242 44.2891 37.6543C41.5712 37.8803 38.7092 37.486 36.3135 37.1064C33.7199 36.6956 31.8135 36.336 30.3477 36.3359C28.209 36.3359 27.9312 36.9051 27.9248 36.917C27.6975 37.2485 27.5462 37.8965 27.4502 39.5811C27.4105 40.2782 27.3713 41.212 27.251 42.0898C27.1285 42.9829 26.8947 44.0667 26.3408 45.1045C25.7535 46.2048 24.8513 47.1674 23.5635 47.8135C22.3305 48.4319 20.9212 48.6719 19.417 48.6719C13.3507 48.6718 8.34396 46.3914 4.92285 42.1514C1.57244 37.9987 4.14015e-06 32.2916 0 25.8193C6.60582e-05 12.0703 11.1604 0.000123781 26.9121 0ZM26.9121 6.19922C14.5573 6.19934 6.19928 15.5217 6.19922 25.8193C6.19922 31.3705 7.55517 35.5399 9.74805 38.2578C11.8702 40.888 15.0217 42.4726 19.417 42.4727C20.2931 42.4726 20.6709 42.3277 20.7832 42.2715C20.8399 42.243 20.8412 42.2405 20.8711 42.1846C20.9344 42.0658 21.0327 41.7999 21.1084 41.248C21.1862 40.6807 21.2126 40.0721 21.2607 39.2275C21.3404 37.8282 21.4531 35.3923 22.8115 33.4111C24.3948 31.1022 27.0365 30.1367 30.3477 30.1367C32.45 30.1368 35.0798 30.6333 37.2832 30.9824C39.6845 31.3629 41.8813 31.6331 43.7754 31.4756C45.6204 31.3221 46.8103 30.7939 47.5986 29.8965C48.4194 28.9618 49.2646 27.105 49.2646 23.3213C49.2646 13.9248 40.0244 6.19929 26.9121 6.19922Z" fill="black"/>
</svg>
