<svg width="54" height="55" viewBox="0 0 54 55" fill="none" xmlns="http://www.w3.org/2000/svg">
<path fill-rule="evenodd" clip-rule="evenodd" d="M4.69814 0.165823C6.22946 -0.229245 7.72802 0.163348 8.76957 0.494398C9.99397 0.883627 11.5224 1.52492 13.2867 2.26166L46.2355 16.0204C47.7458 16.6511 49.0907 17.2092 50.1068 17.7462C51.0081 18.2224 52.187 18.9431 52.9552 20.1726L53.1034 20.4245L53.2713 20.7541C54.0607 22.4153 54.1081 24.341 53.3895 26.0466C52.7764 27.5015 51.5858 28.4131 50.6811 29.0162C49.7248 29.6537 48.444 30.3455 47.0056 31.1265L38.5559 35.7142C38.3037 35.8511 38.1736 35.9222 38.0822 35.9754C38.0298 36.0671 37.9601 36.1978 37.8252 36.4511L31.9906 47.4009C31.2266 48.8347 30.5485 50.1129 29.9217 51.0691C29.3277 51.9753 28.4299 53.1665 26.9874 53.791C25.1808 54.573 23.1162 54.4905 21.3777 53.5671C19.9896 52.8297 19.1893 51.571 18.6693 50.6203C18.1208 49.6172 17.5473 48.2888 16.9 46.7987L2.36494 13.3399C1.60303 11.5861 0.939013 10.0675 0.532382 8.84871C0.163474 7.74291 -0.281039 6.11821 0.232829 4.47462C0.856856 2.47934 2.40611 0.908249 4.39237 0.256L4.69814 0.165823ZM6.77531 6.76635C7.06809 7.64379 7.58712 8.84507 8.40057 10.7175L22.9356 44.1763C23.6277 45.7694 24.0632 46.7629 24.4313 47.4403C24.8523 46.7943 25.366 45.8391 26.183 44.3058L32.0176 33.3571C32.2323 32.9542 32.5135 32.4014 32.9048 31.9019L33.1474 31.6106C33.3974 31.3274 33.6714 31.0658 33.9673 30.8301C34.4638 30.4347 35.015 30.1493 35.4163 29.9314L43.866 25.3438C45.4038 24.5089 46.3629 23.9833 47.0108 23.5538C46.3226 23.1923 45.3147 22.7675 43.7001 22.0933L10.7504 8.33356C8.86622 7.54679 7.65686 7.04656 6.77531 6.76635Z" fill="black"/>
</svg>
