<svg width="48" height="48" viewBox="0 0 48 48" fill="none" xmlns="http://www.w3.org/2000/svg">
<path d="M18.7441 0.0748886C19.917 -0.187472 21.1361 0.251655 21.8721 1.20184C22.6079 2.1521 22.7281 3.44248 22.1807 4.51239C18.4456 11.8092 19.1822 19.4309 23.6299 23.8786C28.0774 28.3257 35.698 29.0612 42.9951 25.3259C44.0649 24.7785 45.3545 24.8989 46.3047 25.6345C47.255 26.3704 47.695 27.5894 47.4326 28.7624C45.0702 39.3215 35.7571 47.2564 24.541 47.5016L24.0059 47.5075C10.7478 47.5072 0.000119443 36.7599 0 23.5016C0 12.048 8.01816 2.47521 18.7441 0.0748886ZM6.20508 23.9616C6.44914 33.583 14.3256 41.3081 24.0059 41.3083C30.1986 41.3083 35.6554 38.1443 38.8457 33.3444C31.7314 34.8697 24.4029 33.4208 19.2451 28.2634C14.0876 23.1059 12.6363 15.7766 14.1611 8.6618C9.36208 11.8523 6.19922 17.3096 6.19922 23.5016L6.20508 23.9616Z" fill="black"/>
</svg>
