<svg width="45" height="46" viewBox="0 0 45 46" fill="none" xmlns="http://www.w3.org/2000/svg">
<path d="M41.2285 25.6357C42.9404 25.636 44.3281 27.0235 44.3281 28.7354V32.8496C44.3281 34.4786 44.3308 35.8869 44.2363 37.043C44.1389 38.2352 43.9227 39.4295 43.3359 40.5811C42.4635 42.2932 41.0715 43.6852 39.3594 44.5576C38.2079 45.1443 37.0134 45.3606 35.8213 45.458C34.6654 45.5524 33.2567 45.5498 31.6279 45.5498H12.6992C11.0708 45.5498 9.66259 45.5524 8.50684 45.458C7.31486 45.3606 6.12012 45.1442 4.96876 44.5576C3.25665 43.6852 1.8636 42.2932 0.991218 40.5811C0.404582 39.4296 0.189204 38.2351 0.0918043 37.043C-0.00263903 35.887 7.45344e-06 34.4786 7.45344e-06 32.8496V28.7354C4.04221e-05 27.0234 1.38776 25.636 3.09962 25.6357C4.81168 25.6357 6.19919 27.0233 6.19923 28.7354V32.8496C6.19923 34.5809 6.20246 35.6931 6.27149 36.5381C6.33754 37.3464 6.44842 37.6346 6.51563 37.7666C6.7936 38.312 7.2378 38.7552 7.78321 39.0332C7.91507 39.1004 8.20326 39.2122 9.01173 39.2783C9.85653 39.3473 10.9687 39.3496 12.6992 39.3496H31.6279C33.359 39.3496 34.4715 39.3473 35.3164 39.2783C36.1246 39.2123 36.4129 39.1004 36.5449 39.0332C37.0902 38.7552 37.5336 38.3119 37.8115 37.7666C37.8787 37.6347 37.9906 37.3469 38.0566 36.5381C38.1257 35.6931 38.1279 34.5809 38.1279 32.8496V28.7354C38.128 27.0234 39.5167 25.636 41.2285 25.6357Z" fill="black"/>
<path d="M22.2031 0.000976562C22.2826 0.00194521 22.3616 0.00586156 22.4395 0.0126953C22.4468 0.013349 22.4545 0.0139448 22.4619 0.0146484C22.4641 0.0148584 22.4666 0.0153863 22.4688 0.015625C22.5521 0.0237397 22.6346 0.0361987 22.7158 0.0507812C22.7349 0.0542113 22.7544 0.0567682 22.7734 0.0605469C22.8534 0.0764579 22.9322 0.0962373 23.0098 0.118164C23.0299 0.12385 23.0503 0.129643 23.0703 0.135742C23.1023 0.145501 23.1335 0.158178 23.165 0.168945C23.2275 0.190185 23.2904 0.211005 23.3516 0.236328C23.3857 0.250496 23.4186 0.267851 23.4522 0.283203C23.7793 0.432638 24.0872 0.639013 24.3565 0.908203L33.7949 10.3477C35.0055 11.5583 35.0055 13.5208 33.7949 14.7314C32.5843 15.9416 30.6216 15.9419 29.4111 14.7314L25.2637 10.584V27.2227C25.2634 28.9345 23.876 30.3223 22.1641 30.3223C20.4525 30.3218 19.0648 28.9342 19.0645 27.2227V10.584L14.917 14.7314C13.7063 15.9416 11.7437 15.9419 10.5332 14.7314C9.32308 13.521 9.32319 11.5582 10.5332 10.3477L19.9717 0.908203C20.2389 0.640999 20.5448 0.435382 20.8691 0.286133C20.9048 0.269681 20.9402 0.251461 20.9766 0.236328C21.0435 0.208615 21.1123 0.185904 21.1807 0.163086C21.2051 0.154898 21.2292 0.144331 21.2539 0.136719C21.2768 0.129715 21.3002 0.123644 21.3232 0.117188C21.3992 0.0958097 21.4765 0.07616 21.5547 0.0605469C21.5737 0.0567543 21.5933 0.054203 21.6123 0.0507812C21.6936 0.0361721 21.7761 0.0237739 21.8594 0.015625C21.8684 0.0147414 21.8777 0.0144634 21.8867 0.0136719C21.978 0.00556612 22.0707 2.5917e-05 22.1641 0L22.2031 0.000976562Z" fill="black"/>
</svg>
