<svg width="53" height="36" viewBox="0 0 53 36" fill="none" xmlns="http://www.w3.org/2000/svg">
<path d="M32.583 29.1826C34.2948 29.1826 35.6825 30.5705 35.6826 32.2822C35.6826 33.9941 34.2949 35.3818 32.583 35.3818H19.6533C17.9416 35.3817 16.5537 33.994 16.5537 32.2822C16.5538 30.5706 17.9417 29.1828 19.6533 29.1826H32.583Z" fill="black"/>
<path d="M40.4521 14.3057C42.1639 14.3058 43.5518 15.6935 43.5518 17.4053C43.5517 19.117 42.1638 20.5047 40.4521 20.5049H11.7852C10.0734 20.5049 8.68565 19.1171 8.68555 17.4053C8.68555 15.6934 10.0733 14.3057 11.7852 14.3057H40.4521Z" fill="black"/>
<path d="M49.1377 0C50.8493 0.00016474 52.2371 1.38801 52.2373 3.09961C52.2373 4.81137 50.8494 6.19905 49.1377 6.19922H3.09961C1.38774 6.19922 0 4.81148 0 3.09961C0.000197917 1.38791 1.38786 0 3.09961 0H49.1377Z" fill="black"/>
</svg>
