<svg width="45" height="45" viewBox="0 0 45 45" fill="none" xmlns="http://www.w3.org/2000/svg">
<path d="M2.98829 25.9971C4.63832 25.9973 5.9754 27.3343 5.97559 28.9844V32.2627C5.97559 33.931 5.97842 35.003 6.04493 35.8174C6.10853 36.5956 6.21548 36.8736 6.28028 37.001C6.54829 37.527 6.97693 37.9556 7.50293 38.2236C7.63032 38.2884 7.90829 38.3954 8.68653 38.459C9.50092 38.5255 10.5729 38.5283 12.2412 38.5283H15.5195C17.1696 38.5285 18.5066 39.8656 18.5068 41.5156C18.5068 43.1659 17.1697 44.5037 15.5195 44.5039H12.2412C10.6714 44.5039 9.31434 44.506 8.2002 44.415C7.05128 44.3212 5.89982 44.1141 4.79004 43.5488C3.13949 42.7078 1.79608 41.3644 0.955082 39.7139C0.389839 38.6041 0.182741 37.4526 0.0888715 36.3037C-0.00212592 35.1896 3.88485e-06 33.8325 4.35441e-06 32.2627V28.9844C0.000195381 27.3342 1.33804 25.9971 2.98829 25.9971Z" fill="black"/>
<path d="M41.3535 25.9971C43.0038 25.9971 44.3416 27.3342 44.3418 28.9844V32.2627C44.3418 33.8325 44.3439 35.1896 44.2529 36.3037C44.1591 37.4527 43.9511 38.604 43.3857 39.7139C42.5447 41.3644 41.2023 42.7078 39.5518 43.5488C38.442 44.1141 37.2905 44.3212 36.1416 44.415C35.0275 44.506 33.6704 44.5039 32.1006 44.5039H28.8223C27.172 44.5038 25.835 43.1659 25.835 41.5156C25.8352 39.8655 27.1721 38.5284 28.8223 38.5283H32.1006C33.7688 38.5283 34.8409 38.5255 35.6553 38.459C36.4337 38.3954 36.7116 38.2884 36.8389 38.2236C37.3649 37.9556 37.7925 37.527 38.0606 37.001C38.1253 36.8737 38.2322 36.5962 38.2959 35.8174C38.3624 35.003 38.3662 33.931 38.3662 32.2627V28.9844C38.3664 27.3343 39.7034 25.9972 41.3535 25.9971Z" fill="black"/>
<path d="M15.5195 4.34375e-06C17.1697 0.000191011 18.5068 1.33804 18.5068 2.98829C18.5068 4.63846 17.1697 5.9754 15.5195 5.97559H12.2412C10.5729 5.97559 9.50092 5.97939 8.68653 6.0459C7.90778 6.10955 7.6302 6.21647 7.50293 6.28125C6.97693 6.54926 6.54829 6.97693 6.28028 7.50293C6.21548 7.63023 6.10857 7.90859 6.04493 8.6875C5.97845 9.5018 5.97559 10.5734 5.97559 12.2412V15.5195C5.97557 17.1697 4.63842 18.5076 2.98829 18.5078C1.33794 18.5078 2.59824e-05 17.1699 4.35441e-06 15.5195V12.2412C3.48195e-06 10.6715 -0.00212348 9.31428 0.0888715 8.2002C0.182759 7.05129 0.389787 5.89981 0.955082 4.79004C1.79608 3.13949 3.13949 1.79706 4.79004 0.956059C5.89991 0.390708 7.05119 0.182749 8.2002 0.0888715C9.31434 -0.00212433 10.6714 3.79687e-06 12.2412 4.34375e-06H15.5195Z" fill="black"/>
<path d="M32.1006 4.34375e-06C33.6704 3.67855e-06 35.0275 -0.00212605 36.1416 0.0888715C37.2906 0.182758 38.4419 0.390673 39.5518 0.956059C41.2023 1.79705 42.5447 3.13952 43.3857 4.79004C43.9511 5.8999 44.159 7.0512 44.2529 8.2002C44.3439 9.31428 44.3418 10.6715 44.3418 12.2412V15.5195C44.3418 17.1699 43.0039 18.5078 41.3535 18.5078C39.7033 18.5077 38.3662 17.1698 38.3662 15.5195V12.2412C38.3662 10.5733 38.3624 9.50181 38.2959 8.6875C38.2322 7.90817 38.1253 7.63013 38.0606 7.50293C37.7925 6.97699 37.3648 6.54924 36.8389 6.28125C36.7117 6.21648 36.4342 6.10958 35.6553 6.0459C34.8409 5.97939 33.7688 5.97559 32.1006 5.97559H28.8223C27.172 5.9755 25.835 4.63852 25.835 2.98829C25.835 1.33798 27.172 9.6249e-05 28.8223 4.34375e-06H32.1006Z" fill="black"/>
</svg>
