<svg width="38" height="45" viewBox="0 0 38 45" fill="none" xmlns="http://www.w3.org/2000/svg">
<path d="M18.5577 44.5039C16.1191 44.5039 14.656 43.0103 14.656 40.4193V8.2451C14.656 7.68505 14.656 7.40503 14.547 7.19111C14.4511 7.00295 14.2981 6.84997 14.11 6.7541C13.8961 6.6451 13.616 6.6451 13.056 6.6451H3.59689C1.46314 6.6451 0 5.36485 0 3.32255C0 1.28025 1.43266 0 3.59689 0H33.549C35.7132 0 37.1459 1.28025 37.1459 3.32255C37.1459 5.36485 35.6828 6.6451 33.549 6.6451H24.0899C23.5298 6.6451 23.2498 6.6451 23.0359 6.7541C22.8477 6.84997 22.6948 7.00295 22.5989 7.19111C22.4899 7.40503 22.4899 7.68505 22.4899 8.2451V40.4193C22.4899 43.0103 21.0268 44.5039 18.5577 44.5039Z" fill="black"/>
</svg>
