<svg width="27" height="34" viewBox="0 0 27 34" fill="none" xmlns="http://www.w3.org/2000/svg">
<path d="M2.06922 33.8203C0.804698 33.8203 0 32.9926 0 31.6821V2.1382C0 0.827689 0.804698 0 2.06922 0C3.33375 0 4.13845 0.827689 4.13845 2.1382V14.6685H22.3476V2.1382C22.3476 0.827689 23.1523 0 24.4168 0C25.6814 0 26.4861 0.827689 26.4861 2.1382V31.6821C26.4861 32.9926 25.6814 33.8203 24.4168 33.8203C23.1523 33.8203 22.3476 32.9926 22.3476 31.6821V18.3931H4.13845V31.6821C4.13845 32.9926 3.33375 33.8203 2.06922 33.8203Z" fill="black"/>
</svg>
