<svg width="51" height="51" viewBox="0 0 51 51" fill="none" xmlns="http://www.w3.org/2000/svg">
<path fill-rule="evenodd" clip-rule="evenodd" d="M16.1992 8.24316C20.4556 8.24324 23.9062 11.6938 23.9062 15.9502C23.9059 20.2063 20.4553 23.6572 16.1992 23.6572C11.9431 23.6571 8.49253 20.2062 8.49219 15.9502C8.49219 11.6939 11.9429 8.24326 16.1992 8.24316ZM16.1992 13.7432C14.9805 13.7433 13.9922 14.7314 13.9922 15.9502C13.9925 17.1687 14.9807 18.1571 16.1992 18.1572C17.4178 18.1572 18.4059 17.1687 18.4062 15.9502C18.4062 14.7314 17.418 13.7432 16.1992 13.7432Z" fill="black"/>
<path fill-rule="evenodd" clip-rule="evenodd" d="M40.4023 0C43.805 2.12062e-08 45.5079 -7.27773e-05 46.8076 0.662109C47.9506 1.24464 48.8804 2.17433 49.4629 3.31738C50.1249 4.61697 50.125 6.31873 50.125 9.7207V40.4023L50.123 41.6025C50.114 44.2249 50.0422 45.6705 49.4629 46.8076L49.3486 47.0186C48.7624 48.0645 47.8791 48.9168 46.8076 49.4629L46.5576 49.5791C45.4569 50.0516 44.037 50.1146 41.6025 50.123L40.4023 50.125H9.72168L8.52246 50.123C6.08728 50.1146 4.66725 50.0518 3.56641 49.5791L3.31738 49.4629C2.2456 48.9167 1.36165 48.0648 0.775391 47.0186L0.662109 46.8076C-0.000118196 45.5079 -4.43238e-09 43.8052 0 40.4023V9.7207C6.24316e-08 6.31877 9.86457e-05 4.61696 0.662109 3.31738C1.24459 2.17442 2.17443 1.2446 3.31738 0.662109C4.61701 0.000114202 6.31952 6.08106e-09 9.72168 0H40.4023ZM32.832 23.7656C32.7728 23.7714 32.5294 23.7938 31.8359 24.3115C31.0885 24.8696 30.1713 25.7255 28.6992 27.1094L10.8945 43.8467H40.4023C42.128 43.8467 43.0972 43.8393 43.7891 43.7891C43.8393 43.0972 43.8467 42.1281 43.8467 40.4023V33.8916L37.2822 27.2627C35.8606 25.8269 34.9741 24.9389 34.2471 24.3545C33.5719 23.8118 33.33 23.7813 33.2715 23.7734C33.126 23.7539 32.9781 23.7513 32.832 23.7656ZM9.72168 6.27832C7.99507 6.27832 7.02592 6.28364 6.33398 6.33398C6.28364 7.02587 6.27832 7.99428 6.27832 9.7207V39.6768L24.4521 22.5918C25.8185 21.3073 27.0315 20.1607 28.127 19.3428C29.2749 18.4858 30.5897 17.7566 32.2256 17.5957C32.8488 17.5345 33.478 17.5454 34.0986 17.6289C35.7278 17.8482 37.0153 18.6249 38.1318 19.5225C39.1973 20.379 40.368 21.5678 41.6875 22.9004L43.8467 25.0801V9.7207C43.8467 7.99415 43.8394 7.02588 43.7891 6.33398C43.0972 6.28374 42.1279 6.27832 40.4023 6.27832H9.72168Z" fill="black"/>
</svg>
