<svg width="45" height="47" viewBox="0 0 45 47" fill="none" xmlns="http://www.w3.org/2000/svg">
<path d="M41.2285 26.6162C42.9404 26.6165 44.3281 28.0039 44.3281 29.7158V33.8301C44.3281 35.459 44.3308 36.8674 44.2363 38.0234C44.1389 39.2156 43.9227 40.41 43.3359 41.5615C42.4635 43.2737 41.0715 44.6657 39.3594 45.5381C38.2078 46.1248 37.0135 46.3411 35.8213 46.4385C34.6653 46.5329 33.2569 46.5303 31.6279 46.5303H12.6992C11.0706 46.5303 9.66268 46.5329 8.50684 46.4385C7.31471 46.3411 6.12026 46.1247 4.96876 45.5381C3.25648 44.6656 1.86367 43.2738 0.991218 41.5615C0.404506 40.41 0.18921 39.2156 0.0918044 38.0234C-0.00264229 36.8674 7.47985e-06 35.4591 7.47985e-06 33.8301V29.7158C4.04564e-05 28.0038 1.38755 26.6162 3.09962 26.6162C4.81166 26.6162 6.19919 28.0038 6.19923 29.7158V33.8301C6.19923 35.5613 6.20246 36.6736 6.27149 37.5186C6.33757 38.3273 6.44843 38.6152 6.51563 38.7471C6.79366 39.2926 7.23763 39.7357 7.78321 40.0137C7.9151 40.0809 8.20294 40.1927 9.01173 40.2588C9.8566 40.3278 10.9685 40.3301 12.6992 40.3301H31.6279C33.3592 40.3301 34.4714 40.3278 35.3164 40.2588C36.1252 40.1927 36.413 40.0809 36.5449 40.0137C37.0902 39.7357 37.5336 39.2924 37.8115 38.7471C37.8787 38.6152 37.9906 38.3272 38.0566 37.5186C38.1257 36.6736 38.1279 35.5613 38.1279 33.8301V29.7158C38.128 28.0038 39.5165 26.6162 41.2285 26.6162Z" fill="black"/>
<path d="M22.1641 0C23.8757 0.000253678 25.2633 1.38797 25.2637 3.09961V19.7383L29.4111 15.5908C30.6217 14.3806 32.5844 14.3804 33.7949 15.5908C35.0052 16.8014 35.0051 18.764 33.7949 19.9746L24.3565 29.4141C24.0892 29.6813 23.7835 29.8869 23.459 30.0361C23.4232 30.0526 23.3881 30.0708 23.3516 30.0859C23.2846 30.1137 23.2159 30.1363 23.1475 30.1592C23.1229 30.1674 23.0991 30.1779 23.0742 30.1855C23.0513 30.1926 23.028 30.1986 23.0049 30.2051C22.9288 30.2265 22.8518 30.2461 22.7734 30.2617C22.7543 30.2655 22.735 30.268 22.7158 30.2715C22.6345 30.2861 22.5522 30.2985 22.4688 30.3066C22.4597 30.3075 22.4505 30.3078 22.4414 30.3086C22.3501 30.3167 22.2575 30.3223 22.1641 30.3223L22.125 30.3213C22.0455 30.3203 21.9666 30.3164 21.8887 30.3096C21.8812 30.3089 21.8737 30.3083 21.8662 30.3076C21.864 30.3074 21.8616 30.3069 21.8594 30.3066C21.776 30.2985 21.6936 30.2861 21.6123 30.2715C21.5932 30.268 21.5738 30.2655 21.5547 30.2617C21.4747 30.2458 21.396 30.226 21.3184 30.2041C21.2982 30.1984 21.2779 30.1926 21.2578 30.1865C21.2258 30.1767 21.1947 30.1641 21.1631 30.1533C21.1007 30.1321 21.0378 30.1113 20.9766 30.0859C20.9424 30.0718 20.9095 30.0544 20.876 30.0391C20.5488 29.8896 20.2409 29.6833 19.9717 29.4141L10.5332 19.9746C9.32278 18.764 9.32265 16.8014 10.5332 15.5908C11.7438 14.3805 13.7064 14.3805 14.917 15.5908L19.0645 19.7383V3.09961C19.0648 1.38784 20.4522 4.14776e-05 22.1641 0Z" fill="black"/>
</svg>
