<svg width="40" height="40" viewBox="0 0 40 40" fill="none" xmlns="http://www.w3.org/2000/svg">
<path d="M19.6006 15.873C21.1238 15.8731 22.1317 16.928 22.1318 18.5684V28.748C22.1318 30.3652 21.124 31.4199 19.6006 31.4199C18.0773 31.4198 17.0693 30.3651 17.0693 28.748V18.5684C17.0695 16.9281 18.0774 15.8732 19.6006 15.873Z" fill="black"/>
<path d="M19.6006 7.80273C21.241 7.8028 22.5535 9.0686 22.5537 10.6855C22.5537 12.2793 21.2412 13.5917 19.6006 13.5918C17.9835 13.5916 16.6709 12.2792 16.6709 10.6855C16.6711 9.06866 17.9837 7.80288 19.6006 7.80273Z" fill="black"/>
<path fill-rule="evenodd" clip-rule="evenodd" d="M19.6123 0C30.4432 0.000241684 39.2243 8.78045 39.2246 19.6113L39.2178 20.1182C38.9489 30.7151 30.2739 39.2234 19.6123 39.2236L19.1064 39.2168C8.50923 38.9483 0.000197334 30.2732 0 19.6113C0.000338619 8.7805 8.78148 0.000322123 19.6123 0ZM19.6123 4.63379C11.3407 4.63412 4.6351 11.3398 4.63477 19.6113C4.63496 27.883 11.3406 34.5895 19.6123 34.5898C27.8842 34.5898 34.5906 27.8832 34.5908 19.6113C34.5905 11.3396 27.8841 4.63387 19.6123 4.63379Z" fill="black"/>
</svg>
