<svg width="25" height="34" viewBox="0 0 25 34" fill="none" xmlns="http://www.w3.org/2000/svg">
<path d="M1.85156 33.8203C0.75 33.8203 0 33.0703 0 32.0156C0 30.9609 0.75 30.2109 1.85156 30.2109H6.75L13.75 3.60938H8.85156C7.75 3.60938 7 2.85938 7 1.80469C7 0.75 7.75 0 8.85156 0H22.7734C23.8984 0 24.7188 0.703125 24.7188 1.80469C24.7188 2.90625 23.8984 3.60938 22.7734 3.60938H17.9688L10.9688 30.2109H15.7734C16.8984 30.2109 17.7188 30.9141 17.7188 32.0156C17.7188 33.1172 16.8984 33.8203 15.7734 33.8203H1.85156Z" fill="currentColor"/>
</svg>
