<svg width="51" height="51" viewBox="0 0 51 51" fill="none" xmlns="http://www.w3.org/2000/svg">
<path fill-rule="evenodd" clip-rule="evenodd" d="M40.403 0C43.8058 2.12069e-08 45.5078 0.000360297 46.8075 0.662603C47.9506 1.24515 48.8804 2.17479 49.4629 3.31796C50.1249 4.61762 50.1255 6.31914 50.1255 9.72148V40.403L50.1235 41.6026C50.1144 44.2252 50.0422 45.6703 49.4629 46.8075L49.3491 47.0191C48.7629 48.0653 47.8792 48.9167 46.8075 49.4629L46.5583 49.5796C45.4575 50.0523 44.0376 50.1151 41.6026 50.1235L40.403 50.1255H9.72148L8.52286 50.1235C6.08719 50.1151 4.66715 50.0524 3.56619 49.5796L3.31796 49.4629C2.24605 48.9167 1.36165 48.0655 0.775345 47.0191L0.662603 46.8075C0.000364039 45.5077 0 43.8059 0 40.403V9.72148C1.91967e-08 6.31901 0.000436714 4.61763 0.662603 3.31796C1.24516 2.17479 2.17476 1.2451 3.31796 0.662603C4.61762 0.000592447 6.31916 9.97783e-10 9.72148 0H40.403ZM9.72148 6.27891C7.99472 6.27891 7.02626 6.28395 6.33429 6.33429C6.28393 7.02625 6.27891 7.99459 6.27891 9.72148V40.403C6.27891 42.1288 6.28404 43.0973 6.33429 43.7892C7.02627 43.8395 7.9946 43.8465 9.72148 43.8465H40.403C42.1288 43.8465 43.0973 43.8395 43.7892 43.7892C43.8394 43.0973 43.8465 42.1288 43.8465 40.403V9.72148C43.8465 7.99449 43.8396 7.02626 43.7892 6.33429C43.0973 6.28403 42.1287 6.27891 40.403 6.27891H9.72148Z" fill="black"/>
<path d="M23.0311 37.2637C17.1447 37.2637 13.4328 32.5634 13.4328 25.0737C13.4328 17.6719 17.1447 12.9716 23.0311 12.9716C26.3476 12.9716 29.2157 14.553 30.4457 17.2106H30.4988V16.0685C30.4988 13.96 31.7947 12.8618 33.5957 12.8618C35.4187 12.8618 36.6926 13.96 36.6926 16.0904V34.035C36.6926 36.1435 35.4187 37.2637 33.5957 37.2637C31.8386 37.2637 30.5866 36.2094 30.4988 34.2326V33.0686H30.4457C29.2377 35.7701 26.3915 37.2637 23.0311 37.2637ZM24.583 32.1021C27.7897 32.1021 29.8104 29.4445 29.8104 25.1176C29.8104 20.8347 27.7678 18.1111 24.583 18.1111C21.3982 18.1111 19.4434 20.7907 19.4434 25.1176C19.4434 29.4665 21.3982 32.1021 24.583 32.1021Z" fill="black"/>
</svg>
