<svg width="54" height="54" viewBox="0 0 54 54" fill="none" xmlns="http://www.w3.org/2000/svg">
<path d="M26.5791 44.9678C28.291 44.9678 29.6784 46.3555 29.6787 48.0674V50.0684C29.6787 51.7804 28.2912 53.168 26.5791 53.168C24.867 53.168 23.4795 51.7804 23.4795 50.0684V48.0674C23.4798 46.3555 24.8672 44.9678 26.5791 44.9678Z" fill="black"/>
<path d="M9.20508 39.5869C10.4157 38.3767 12.3784 38.3764 13.5889 39.5869C14.7992 40.7974 14.7991 42.7601 13.5889 43.9707L12.1738 45.3857C10.9632 46.5963 9.00067 46.5962 7.79004 45.3857C6.57941 44.1751 6.57941 42.2126 7.79004 41.002L9.20508 39.5869Z" fill="black"/>
<path d="M39.5801 39.5869C40.7906 38.3767 42.7523 38.3768 43.9629 39.5869L45.3779 41.002C46.5886 42.2126 46.5886 44.1751 45.3779 45.3857C44.1674 46.596 42.2057 46.5959 40.9951 45.3857L39.5801 43.9707C38.3696 42.7601 38.3695 40.7975 39.5801 39.5869Z" fill="black"/>
<path fill-rule="evenodd" clip-rule="evenodd" d="M26.5791 10.4717C35.4776 10.4718 42.6922 17.6855 42.6924 26.584L42.6865 27C42.466 35.7065 35.3387 42.6971 26.5791 42.6973L26.1631 42.6914C17.4568 42.4706 10.4668 35.3435 10.4668 26.584C10.467 17.6855 17.6806 10.4718 26.5791 10.4717ZM26.5791 16.6719C21.1048 16.672 16.6672 21.1097 16.667 26.584C16.667 32.0585 21.1047 36.4969 26.5791 36.4971C32.0535 36.4969 36.4922 32.0585 36.4922 26.584C36.492 21.1097 32.0534 16.672 26.5791 16.6719Z" fill="black"/>
<path d="M5.10059 23.4893C6.81239 23.4894 8.19993 24.8771 8.2002 26.5889C8.2002 28.3009 6.81255 29.6883 5.10059 29.6885L3.09961 29.6895C1.3878 29.6893 0.000263752 28.3016 0 26.5898C-7.4834e-08 24.8778 1.38764 23.4904 3.09961 23.4902L5.10059 23.4893Z" fill="black"/>
<path d="M50.0684 23.4893C51.7803 23.4893 53.1677 24.877 53.168 26.5889C53.168 28.3009 51.7804 29.6885 50.0684 29.6885H48.0674C46.3554 29.6883 44.9678 28.3009 44.9678 26.5889C44.968 24.8771 46.3556 23.4894 48.0674 23.4893H50.0684Z" fill="black"/>
<path d="M7.7832 7.79004C8.99375 6.57976 10.9554 6.5798 12.166 7.79004L13.5811 9.20508C14.7915 10.4157 14.7916 12.3783 13.5811 13.5889C12.3706 14.7991 10.4088 14.7989 9.19824 13.5889L7.7832 12.1738C6.57258 10.9632 6.57258 9.00066 7.7832 7.79004Z" fill="black"/>
<path d="M41.002 7.79004C42.2125 6.57976 44.1742 6.57985 45.3848 7.79004C46.5954 9.00066 46.5954 10.9632 45.3848 12.1738L43.9707 13.5889C42.7601 14.7993 40.7975 14.7993 39.5869 13.5889C38.3764 12.3783 38.3765 10.4157 39.5869 9.20508L41.002 7.79004Z" fill="black"/>
<path d="M26.5791 0C28.2912 0 29.6787 1.3885 29.6787 3.10059V5.10156C29.6783 6.8133 28.2909 8.20117 26.5791 8.20117C24.8673 8.20117 23.4799 6.8133 23.4795 5.10156V3.10059C23.4795 1.3885 24.867 0 26.5791 0Z" fill="black"/>
</svg>
