<svg width="53" height="53" viewBox="0 0 53 53" fill="none" xmlns="http://www.w3.org/2000/svg">
<path d="M22.4068 15.7928C26.2786 15.7928 29.9314 17.3039 32.6685 20.0437L32.7867 20.1687C33.9716 21.4806 33.9341 23.5086 32.668 24.7727C32.6677 24.773 32.6677 24.7734 32.668 24.7737C32.6683 24.774 32.6683 24.7744 32.668 24.7747C31.4024 26.0396 29.375 26.0795 28.062 24.8933L27.937 24.7742C24.9988 21.8339 19.8093 21.8336 16.871 24.7738C16.8707 24.7741 16.8704 24.7742 16.8701 24.7742C16.8698 24.7742 16.8695 24.7743 16.8693 24.7745L8.96924 32.6707C5.91931 35.7232 5.92008 40.6879 8.96924 43.741L9.26123 44.0183C12.3331 46.7884 17.0851 46.6915 20.0405 43.741L23.6215 40.16C23.6222 40.1593 23.6226 40.1584 23.6226 40.1575C23.6226 40.1565 23.623 40.1556 23.6236 40.155L23.9888 39.7898C25.295 38.4839 27.4129 38.4841 28.7193 39.7898C30.0257 41.0962 30.0257 43.2149 28.7193 44.5213L24.771 48.4695C21.9426 51.3008 18.2154 52.7146 14.5064 52.7146C10.7966 52.7145 7.07508 51.3 4.24462 48.4695C-1.41484 42.8067 -1.41491 33.604 4.24462 27.9412L12.144 20.0437C14.8811 17.3036 18.5348 15.7929 22.4068 15.7928ZM27.9409 4.24197C33.6003 -1.41092 42.8086 -1.41739 48.4693 4.24295L48.73 4.5115C54.127 10.1929 54.0408 19.1995 48.4693 24.7713L48.4654 24.7752L40.566 32.6716C37.8294 35.4111 34.1768 36.9255 30.3042 36.9256C26.4323 36.9254 22.779 35.4141 20.0419 32.671C20.0416 32.6708 20.0415 32.6705 20.0415 32.6702C20.0415 32.6699 20.0414 32.6696 20.0412 32.6693C18.7371 31.3629 18.7371 29.2468 20.0425 27.9412C21.3121 26.6688 23.3381 26.6434 24.647 27.822L24.7712 27.9384C24.7717 27.939 24.7722 27.9396 24.7725 27.9403C24.7728 27.9409 24.7732 27.9414 24.7737 27.9419C27.718 30.8854 32.9017 30.884 35.8394 27.9422L35.8404 27.9412L43.7408 20.0437C46.7905 16.994 46.7914 12.027 43.7411 8.97376C43.7409 8.97354 43.7408 8.97324 43.7408 8.97293C43.7408 8.97262 43.7406 8.97231 43.7404 8.97209C40.6852 5.92107 35.7207 5.92534 32.6704 8.97244L28.7225 12.9242C28.7223 12.9245 28.7222 12.9248 28.7222 12.9251C28.7222 12.9254 28.7221 12.9257 28.7219 12.9259C27.4156 14.2313 25.2983 14.2313 23.9921 12.9259C23.9918 12.9257 23.9917 12.9254 23.9917 12.9251C23.9917 12.9248 23.9916 12.9245 23.9914 12.9242C22.6844 11.6193 22.6871 9.49895 23.9917 8.19412L27.94 4.24295L27.9409 4.24197Z" fill="black"/>
</svg>
