<svg width="46" height="58" viewBox="0 0 46 58" fill="none" xmlns="http://www.w3.org/2000/svg">
<path fill-rule="evenodd" clip-rule="evenodd" d="M24.2578 0C24.751 0 25.1356 0.000972029 25.4482 0.0195312C25.5427 0.0231412 25.6367 0.0314645 25.7305 0.0439453C25.7814 0.0500908 25.8301 0.0574034 25.877 0.0654297C25.8939 0.0685414 25.9108 0.0717901 25.9277 0.0751953C25.9917 0.0875399 26.0519 0.1023 26.1094 0.119141C26.6017 0.250671 27.0678 0.507272 27.4541 0.893555L44.873 18.3115C45.3905 18.829 45.6779 19.4889 45.7383 20.165C45.7931 20.5335 45.7939 21.0175 45.7939 21.7246V45.8311C45.7939 49.7513 45.7932 51.7116 45.0303 53.209C44.3592 54.5259 43.2886 55.5965 41.9717 56.2676C40.4743 57.0305 38.514 57.0312 34.5938 57.0312H11.2002C7.28002 57.0312 5.31962 57.0304 3.82227 56.2676C2.50517 55.5965 1.43381 54.5261 0.762695 53.209C-0.000248015 51.7116 2.67557e-10 49.7513 1.06354e-10 45.8311V11.2002C2.25928e-10 7.27992 -0.000249505 5.31963 0.762695 3.82227C1.43381 2.50518 2.50517 1.43477 3.82227 0.763672C5.31962 0.000818133 7.28 0 11.2002 0H24.2578ZM11.2002 6C9.14177 6 7.9577 6.00528 7.0918 6.07617C6.75506 6.10375 6.56312 6.13574 6.47168 6.1543C6.3424 6.23488 6.23434 6.34241 6.1543 6.46973C6.13582 6.56064 6.10281 6.75263 6.0752 7.09082C6.00445 7.95724 6 9.14086 6 11.2002V45.8311C6 47.8904 6.00445 49.074 6.0752 49.9404C6.10272 50.2775 6.13579 50.4693 6.1543 50.5605C6.2343 50.688 6.34237 50.7953 6.47168 50.876C6.56305 50.8945 6.75483 50.9275 7.0918 50.9551C7.9577 51.026 9.14179 51.0312 11.2002 51.0312H34.5938C36.6523 51.0312 37.8363 51.026 38.7021 50.9551C39.0381 50.9276 39.2296 50.8945 39.3213 50.876C39.4503 50.7954 39.5581 50.6876 39.6387 50.5586C39.6572 50.4669 39.6903 50.2753 39.7178 49.9395C39.7709 49.29 39.7873 48.4616 39.792 47.2197L39.7939 45.8311V24.5244H30.6582C30.1972 24.5244 29.49 24.5294 28.8555 24.4775C28.1509 24.42 27.0267 24.264 25.8262 23.6523C24.3209 22.8854 23.0971 21.6615 22.3301 20.1562C21.7184 18.9557 21.5625 17.8315 21.5049 17.127C21.453 16.4924 21.458 15.7853 21.458 15.3242V6H11.2002ZM27.458 15.3242C27.458 16.4443 27.4578 17.0048 27.6758 17.4326C27.8675 17.8089 28.1736 18.1149 28.5498 18.3066C28.8706 18.4701 29.266 18.5113 29.916 18.5215L30.6582 18.5244H36.5996L27.458 9.38184V15.3242Z" fill="black"/>
<path d="M32.5982 28.478C34.5311 28.4781 36.0982 30.0451 36.0982 31.978C36.0982 33.9109 34.5311 35.4779 32.5982 35.478H13.1959C11.2629 35.478 9.69589 33.911 9.69589 31.978C9.69589 30.045 11.2629 28.478 13.1959 28.478H32.5982Z" fill="black"/>
<path d="M32.5982 39.1126C34.5311 39.1127 36.0982 40.6797 36.0982 42.6126C36.0982 44.5456 34.5311 46.1125 32.5982 46.1126H13.1959C11.2629 46.1126 9.69589 44.5456 9.69589 42.6126C9.69589 40.6796 11.2629 39.1126 13.1959 39.1126H32.5982Z" fill="black"/>
</svg>
