<svg width="43" height="41" viewBox="0 0 43 41" fill="none" xmlns="http://www.w3.org/2000/svg">
<path d="M25.8408 0.907375C27.0511 -0.302598 29.0132 -0.302318 30.2236 0.907375L41.4219 12.1066C41.6355 12.3203 41.811 12.5584 41.9492 12.8107C41.9524 12.8165 41.9558 12.8224 41.959 12.8283C41.9846 12.8758 42.0063 12.9252 42.0293 12.9738C42.0509 13.0195 42.0743 13.0646 42.0938 13.1115C42.119 13.1724 42.14 13.2349 42.1611 13.297C42.1719 13.3286 42.1845 13.3597 42.1943 13.3917C42.2002 13.4108 42.2055 13.4302 42.2109 13.4494C42.2876 13.7192 42.3301 14.0045 42.3301 14.299C42.3301 14.3451 42.3282 14.391 42.3262 14.4367C42.3488 15.2586 42.049 16.0878 41.4219 16.715L30.2246 27.9132C29.0141 29.1237 27.0513 29.1237 25.8408 27.9132C24.6305 26.7027 24.6307 24.7401 25.8408 23.5294L31.9707 17.3986H14.5215C9.92562 17.3986 6.20023 21.1255 6.2002 25.7218C6.20066 30.3178 9.92589 34.0441 14.5215 34.0441H19.9111C21.623 34.0441 23.0107 35.4317 23.0107 37.1437C23.0105 38.8556 21.6229 40.2433 19.9111 40.2433H14.5215C6.50205 40.2433 0.000464847 33.7419 0 25.7218C3.37566e-05 17.7014 6.50179 11.1994 14.5215 11.1994H31.7471L25.8408 5.29214C24.6305 4.0815 24.6304 2.11793 25.8408 0.907375Z" fill="black"/>
</svg>
