<svg width="45" height="45" viewBox="0 0 45 45" fill="none" xmlns="http://www.w3.org/2000/svg">
<path fill-rule="evenodd" clip-rule="evenodd" d="M20.7129 0.00683594C31.6231 0.283541 40.3828 9.2145 40.3828 20.1914L40.376 20.7129C40.2666 25.0249 38.8045 29.0003 36.3994 32.2324L43.8301 39.6631C45.0404 40.8737 45.0396 42.8373 43.8291 44.0479C42.6186 45.2577 40.6567 45.2578 39.4463 44.0479L31.9805 36.582C28.6631 38.9723 24.5924 40.3828 20.1914 40.3828L19.6699 40.376C8.93296 40.1038 0.279238 31.4498 0.00683594 20.7129L0 20.1914C0 9.04008 9.04008 0 20.1914 0L20.7129 0.00683594ZM20.1914 6.2002C12.4642 6.2002 6.2002 12.4642 6.2002 20.1914C6.2004 27.9184 12.4644 34.1826 20.1914 34.1826C27.9184 34.1825 34.1824 27.9183 34.1826 20.1914C34.1826 12.4643 27.9185 6.2003 20.1914 6.2002Z" fill="black"/>
</svg>
