<svg width="46" height="47" viewBox="0 0 46 47" fill="none" xmlns="http://www.w3.org/2000/svg">
<path fill-rule="evenodd" clip-rule="evenodd" d="M13.584 24.1689C16.1741 24.1779 17.6006 24.2501 18.7236 24.8223C19.8526 25.3975 20.7705 26.3154 21.3457 27.4443C21.9996 28.7277 22 30.4077 22 33.7676L21.999 37.752C21.9901 40.342 21.9178 41.7686 21.3457 42.8916C20.7705 44.0206 19.8526 44.9384 18.7236 45.5137C17.6006 46.0858 16.1741 46.158 13.584 46.167L9.59961 46.168C6.44937 46.168 4.7759 46.1678 3.52148 45.6289L3.27637 45.5137C2.21808 44.9744 1.34458 44.1346 0.765625 43.1016L0.654297 42.8916C0.0821865 41.7686 0.00991862 40.342 0.000976562 37.752L0 33.7676C1.11917e-08 30.4077 0.000425518 28.7277 0.654297 27.4443C1.22954 26.3154 2.14743 25.3975 3.27637 24.8223C4.55977 24.1684 6.23969 24.168 9.59961 24.168L13.584 24.1689ZM9.59961 30.3682C7.89424 30.3682 6.9382 30.3731 6.25488 30.4229C6.20515 31.1062 6.2002 32.0623 6.2002 33.7676V36.5684C6.2002 38.2728 6.20522 39.2289 6.25488 39.9121C6.9382 39.9618 7.89417 39.9678 9.59961 39.9678H12.4004C14.105 39.9678 15.0609 39.9618 15.7441 39.9121C15.7938 39.2289 15.7998 38.2729 15.7998 36.5684V33.7676C15.7998 32.0622 15.7939 31.1062 15.7441 30.4229C15.0609 30.3732 14.105 30.3682 12.4004 30.3682H9.59961Z" fill="black"/>
<path fill-rule="evenodd" clip-rule="evenodd" d="M37.584 24.1689C40.1741 24.1779 41.6006 24.2501 42.7236 24.8223C43.8526 25.3975 44.7705 26.3154 45.3457 27.4443C45.9996 28.7277 46 30.4077 46 33.7676L45.999 37.752C45.9901 40.342 45.9178 41.7686 45.3457 42.8916C44.7705 44.0206 43.8526 44.9384 42.7236 45.5137C41.6006 46.0858 40.1741 46.158 37.584 46.167L33.5996 46.168C30.4494 46.168 28.7759 46.1678 27.5215 45.6289L27.2764 45.5137C26.2181 44.9744 25.3446 44.1346 24.7656 43.1016L24.6543 42.8916C24.0822 41.7686 24.0099 40.342 24.001 37.752L24 33.7676C24 30.4077 24.0004 28.7277 24.6543 27.4443C25.2295 26.3154 26.1474 25.3975 27.2764 24.8223C28.5598 24.1684 30.2397 24.168 33.5996 24.168L37.584 24.1689ZM33.5996 30.3682C31.8942 30.3682 30.9382 30.3731 30.2549 30.4229C30.2052 31.1062 30.2002 32.0623 30.2002 33.7676V36.5684C30.2002 38.2728 30.2052 39.2289 30.2549 39.9121C30.9382 39.9618 31.8942 39.9678 33.5996 39.9678H36.4004C38.105 39.9678 39.0609 39.9618 39.7441 39.9121C39.7938 39.2289 39.7998 38.2729 39.7998 36.5684V33.7676C39.7998 32.0622 39.7939 31.1062 39.7441 30.4229C39.0609 30.3732 38.105 30.3682 36.4004 30.3682H33.5996Z" fill="black"/>
<path fill-rule="evenodd" clip-rule="evenodd" d="M13.584 0.000976562C16.1741 0.00991881 17.6006 0.0821527 18.7236 0.654297C19.8526 1.22953 20.7705 2.14742 21.3457 3.27637C21.9996 4.55977 22 6.23969 22 9.59961L21.999 13.584C21.9901 16.1741 21.9178 17.6006 21.3457 18.7236C20.7705 19.8526 19.8526 20.7705 18.7236 21.3457C17.6006 21.9179 16.1741 21.9901 13.584 21.999L9.59961 22C6.44937 22 4.7759 21.9999 3.52148 21.4609L3.27637 21.3457C2.21806 20.8065 1.34458 19.9666 0.765625 18.9336L0.654297 18.7236C0.0821638 17.6006 0.00991875 16.1741 0.000976562 13.584L0 9.59961C6.06294e-09 6.23969 0.000421524 4.55977 0.654297 3.27637C1.22954 2.14742 2.14741 1.22953 3.27637 0.654297C4.55977 0.000430226 6.23967 9.85289e-10 9.59961 0L13.584 0.000976562ZM9.59961 6.2002C7.89423 6.2002 6.9382 6.20515 6.25488 6.25488C6.20515 6.93819 6.2002 7.89427 6.2002 9.59961V12.4004C6.2002 14.1049 6.20522 15.0609 6.25488 15.7441C6.9382 15.7939 7.89417 15.7998 9.59961 15.7998H12.4004C14.105 15.7998 15.0609 15.7938 15.7441 15.7441C15.7938 15.0609 15.7998 14.105 15.7998 12.4004V9.59961C15.7998 7.89421 15.7939 6.9382 15.7441 6.25488C15.0609 6.20522 14.105 6.2002 12.4004 6.2002H9.59961Z" fill="black"/>
<path fill-rule="evenodd" clip-rule="evenodd" d="M37.584 0.000976562C40.1741 0.00991881 41.6006 0.0821527 42.7236 0.654297C43.8526 1.22953 44.7705 2.14742 45.3457 3.27637C45.9996 4.55977 46 6.23969 46 9.59961L45.999 13.584C45.9901 16.1741 45.9178 17.6006 45.3457 18.7236C44.7705 19.8526 43.8526 20.7705 42.7236 21.3457C41.6006 21.9179 40.1741 21.9901 37.584 21.999L33.5996 22C30.4494 22 28.7759 21.9999 27.5215 21.4609L27.2764 21.3457C26.2181 20.8065 25.3446 19.9666 24.7656 18.9336L24.6543 18.7236C24.0822 17.6006 24.0099 16.1741 24.001 13.584L24 9.59961C24 6.23969 24.0004 4.55977 24.6543 3.27637C25.2295 2.14742 26.1474 1.22953 27.2764 0.654297C28.5598 0.000430226 30.2397 9.85289e-10 33.5996 0L37.584 0.000976562ZM33.5996 6.2002C31.8942 6.2002 30.9382 6.20515 30.2549 6.25488C30.2051 6.93819 30.2002 7.89427 30.2002 9.59961V12.4004C30.2002 14.1049 30.2052 15.0609 30.2549 15.7441C30.9382 15.7939 31.8942 15.7998 33.5996 15.7998H36.4004C38.105 15.7998 39.0609 15.7938 39.7441 15.7441C39.7938 15.0609 39.7998 14.105 39.7998 12.4004V9.59961C39.7998 7.89421 39.7939 6.9382 39.7441 6.25488C39.0609 6.20522 38.105 6.2002 36.4004 6.2002H33.5996Z" fill="black"/>
</svg>
