<svg width="35" height="35" viewBox="0 0 35 35" fill="none" xmlns="http://www.w3.org/2000/svg">
<path d="M17.5049 0C23.1532 0.00011236 27.7002 2.83603 28.9189 7.40625C28.9892 7.66405 29.0361 8.01567 29.0361 8.46094C29.0361 9.60926 28.2391 10.3592 27.1143 10.3594C26.0362 10.3594 25.3799 9.79681 25.0049 8.71875C23.833 5.29698 21.0438 3.79697 17.3877 3.79688C13.1689 3.79688 9.91113 5.85938 9.91113 9.30469C9.91113 11.9766 11.7158 13.8047 16.333 14.8125L20.083 15.6328C20.2155 15.6619 20.3461 15.6927 20.4756 15.7227H33.2344C34.2009 15.7227 34.9844 16.5062 34.9844 17.4727C34.9844 18.4392 34.2009 19.2227 33.2344 19.2227H27.8828C29.2969 20.6801 29.9268 22.5044 29.9268 24.7734C29.9268 31.0312 25.0047 34.9452 17.4346 34.9453C11.0831 34.9453 6.55961 32.0859 5.29395 28.0078C5.15332 27.5391 5.05957 27.0234 5.05957 26.5312C5.05957 25.1953 5.80957 24.3516 7.00488 24.3516C8.05937 24.3517 8.71586 24.8907 9.04395 26.0156C10.0752 29.5077 13.4034 31.1484 17.6689 31.1484C22.2625 31.1483 25.5908 28.7343 25.5908 25.4062C25.5908 22.5704 23.7156 20.6953 19.0283 19.6641L17.0107 19.2227H1.75C0.783698 19.2224 0 18.439 0 17.4727C0 16.5063 0.783698 15.7229 1.75 15.7227H8.2168C6.40963 14.1252 5.5752 12.0559 5.5752 9.49219C5.5752 3.91406 10.4971 0 17.5049 0Z" fill="black"/>
</svg>
