<svg width="31" height="36" viewBox="0 0 31 36" fill="none" xmlns="http://www.w3.org/2000/svg">
<path d="M15.1797 30.7109C6.78906 30.7109 1.75 25.5078 1.75 18.2891V2.17969C1.75 0.84375 2.57031 0 3.85938 0C5.14844 0 5.96875 0.84375 5.96875 2.17969V18.0078C5.96875 23.1172 9.32031 26.8203 15.1797 26.8203C21.0391 26.8203 24.3906 23.1172 24.3906 18.0078V2.17969C24.3906 0.84375 25.2109 0 26.5 0C27.7891 0 28.6094 0.84375 28.6094 2.17969V18.2891C28.6094 25.5078 23.5703 30.7109 15.1797 30.7109Z" fill="black"/>
<path d="M28.6094 32.3984C29.5759 32.3984 30.3594 33.1819 30.3594 34.1484C30.3594 35.1149 29.5759 35.8984 28.6094 35.8984L1.75 35.8984C0.783501 35.8984 -2.37484e-07 35.1149 -1.5299e-07 34.1484C-6.84959e-08 33.1819 0.783502 32.3984 1.75 32.3984L28.6094 32.3984Z" fill="black"/>
</svg>
