<svg width="43" height="41" viewBox="0 0 43 41" fill="none" xmlns="http://www.w3.org/2000/svg">
<path d="M12.1074 0.907494C13.318 -0.302414 15.2808 -0.302581 16.4912 0.907494C17.7018 2.11805 17.7016 4.08162 16.4912 5.29226L10.584 11.1995H27.8115C35.832 11.1995 42.3339 17.7015 42.334 25.7219C42.3335 33.742 35.8317 40.2434 27.8115 40.2434H22.4209C20.709 40.2434 19.3215 38.8557 19.3213 37.1438C19.3214 35.4319 20.7089 34.0443 22.4209 34.0442H27.8115C32.4076 34.0442 36.1333 30.3179 36.1338 25.7219C36.1337 21.1257 32.4078 17.3987 27.8115 17.3987H10.3604L16.4912 23.5296C17.7014 24.7402 17.7016 26.7029 16.4912 27.9134C15.2806 29.1239 13.317 29.1239 12.1064 27.9134L0.908203 16.7151C0.281127 16.088 -0.0187416 15.2587 0.00390625 14.4368C0.001907 14.3912 6.07623e-06 14.3452 0 14.2991C8.79857e-06 14.0046 0.0424417 13.7194 0.119141 13.4495C0.124592 13.4303 0.129912 13.411 0.135742 13.3919C0.145533 13.3598 0.158156 13.3287 0.168945 13.2971C0.190133 13.235 0.211081 13.1726 0.236328 13.1116C0.255791 13.0647 0.279115 13.0196 0.300781 12.9739C0.323767 12.9253 0.345441 12.876 0.371094 12.8284C0.374275 12.8225 0.377642 12.8167 0.380859 12.8108C0.519094 12.5584 0.69451 12.3205 0.908203 12.1067L12.1074 0.907494Z" fill="black"/>
</svg>
