<svg width="56" height="56" viewBox="0 0 56 56" fill="none" xmlns="http://www.w3.org/2000/svg">
<path fill-rule="evenodd" clip-rule="evenodd" d="M27.7939 0C43.1439 0.000484611 55.5887 12.4438 55.5889 27.7939C55.5885 43.1439 43.1438 55.5884 27.7939 55.5889C12.4437 55.5887 0.000339234 43.1441 0 27.7939C0.000127442 12.4436 12.4436 0.000127433 27.7939 0ZM19.958 30.8613C20.6297 38.1213 23.6107 45.1331 27.8213 49.2744C32.0026 45.1234 34.9606 38.1007 35.6289 30.8613H19.958ZM6.35059 30.8613C7.45908 38.6802 12.7443 45.1522 19.876 47.9551C16.511 43.1532 14.3409 37.2384 13.8096 30.8613H6.35059ZM41.7783 30.8613C41.2471 37.2386 39.0761 43.1532 35.7109 47.9551C42.8427 45.1522 48.1289 38.6802 49.2373 30.8613H41.7783ZM19.873 7.63086C12.742 10.4344 7.45844 16.9087 6.35059 24.7275H13.8096C14.3401 18.3499 16.5083 12.4334 19.873 7.63086ZM27.7656 6.30859C23.5834 10.4603 20.6266 17.4864 19.959 24.7275H35.6299C34.9589 17.4654 31.9776 10.4505 27.7656 6.30859ZM35.7139 7.63086C39.0788 12.4334 41.2476 18.3498 41.7783 24.7275H49.2373C48.1295 16.9086 42.845 10.4344 35.7139 7.63086Z" fill="black"/>
</svg>
