<svg width="45" height="45" viewBox="0 0 45 45" fill="none" xmlns="http://www.w3.org/2000/svg">
<path d="M27.4873 17.6914C28.8677 17.6918 29.9873 18.8109 29.9873 20.1914C29.9871 21.5717 28.8676 22.6911 27.4873 22.6914H12.8955C11.5149 22.6914 10.3957 21.5719 10.3955 20.1914C10.3955 18.8107 11.5148 17.6914 12.8955 17.6914H27.4873Z" fill="black"/>
<path fill-rule="evenodd" clip-rule="evenodd" d="M20.7129 0.00683594C31.6229 0.283728 40.3828 9.21462 40.3828 20.1914L40.376 20.7129C40.2666 25.0248 38.8044 29.0003 36.3994 32.2324L43.8301 39.6631C45.0401 40.8736 45.0402 42.8374 43.8301 44.0479C42.6196 45.258 40.6569 45.2578 39.4463 44.0479L31.9805 36.582C28.6632 38.9722 24.5923 40.3827 20.1914 40.3828L19.6699 40.376C8.93296 40.1038 0.279211 31.4498 0.00683594 20.7129L0 20.1914C0 9.04009 9.04009 1.64944e-05 20.1914 0L20.7129 0.00683594ZM20.1914 6.2002C12.4643 6.20021 6.2002 12.4643 6.2002 20.1914C6.20037 27.9184 12.4644 34.1826 20.1914 34.1826C27.9182 34.1823 34.1824 27.9182 34.1826 20.1914C34.1826 12.4644 27.9183 6.2005 20.1914 6.2002Z" fill="black"/>
</svg>
