<svg width="45" height="45" viewBox="0 0 45 45" fill="none" xmlns="http://www.w3.org/2000/svg">
<path d="M20.1914 10.3955C21.5719 10.3957 22.6914 11.5149 22.6914 12.8955V17.6914H27.4873C28.8677 17.6918 29.9873 18.8109 29.9873 20.1914C29.9871 21.5717 28.8676 22.6911 27.4873 22.6914H22.6914V27.4873C22.6911 28.8676 21.5717 29.9871 20.1914 29.9873C18.811 29.9872 17.6917 28.8677 17.6914 27.4873V22.6914H12.8955C11.5151 22.6912 10.3957 21.5718 10.3955 20.1914C10.3955 18.8108 11.5149 17.6916 12.8955 17.6914H17.6914V12.8955C17.6914 11.5149 18.8108 10.3956 20.1914 10.3955Z" fill="black"/>
<path fill-rule="evenodd" clip-rule="evenodd" d="M20.7129 0.00683594C31.6229 0.283728 40.3828 9.21462 40.3828 20.1914L40.376 20.7129C40.2666 25.0249 38.8045 29.0003 36.3994 32.2324L43.8311 39.6631C45.0411 40.8737 45.0403 42.8374 43.8301 44.0479C42.6196 45.258 40.6568 45.2579 39.4463 44.0479L31.9814 36.582C28.6641 38.9724 24.5925 40.3827 20.1914 40.3828L19.6699 40.376C8.9331 40.1037 0.279204 31.4497 0.00683594 20.7129L0 20.1914C0 9.04019 9.04023 0.000181436 20.1914 0L20.7129 0.00683594ZM20.1914 6.2002C12.4644 6.20038 6.2002 12.4644 6.2002 20.1914C6.20037 27.9183 12.4645 34.1824 20.1914 34.1826C27.9182 34.1823 34.1824 27.9182 34.1826 20.1914C34.1826 12.4644 27.9183 6.2005 20.1914 6.2002Z" fill="black"/>
</svg>
